nColumns=28
nRows=16
DataType=double
version=3
OpenSimVersion=4.1
endheader
time	1_ground_force_vx	1_ground_force_vy	1_ground_force_vz	1_ground_force_px	1_ground_force_py	1_ground_force_pz	1_ground_torque_x	1_ground_torque_y	1_ground_torque_z	2_ground_force_vx	2_ground_force_vy	2_ground_force_vz	2_ground_force_px	2_ground_force_py	2_ground_force_pz	2_ground_torque_x	2_ground_torque_y	2_ground_torque_z	3_ground_force_vx	3_ground_force_vy	3_ground_force_vz	3_ground_force_px	3_ground_force_py	3_ground_force_pz	3_ground_torque_x	3_ground_torque_y	3_ground_torque_z
0	15.38904744898232	41.88868107447231	0.5915454303125475	0.1828020596582249	-0.005999999999990864	0.0154829867571932	-0.1138137587769355	-0.3094705103380032	-0.06673021809785971	97.87749722326927	817.735464458263	-60.01695978731509	-0.1917441400711799	-0.00599999999999085	0.2476784760337689	-0.2871905559573821	-2.38938509714396	0.1749709603919039	1.348635009012123e-16	1.954320838772135e-16	2.036026479346939e-17	0.8999999999986149	-0.005999999999990853	0.1999999923701451	-4.171146977902433e-19	2.0575323328189e-19	2.057867467596437e-20
0.0008333333333333335	16.12551149225022	47.49581084148983	0.3316375467102432	0.1843588883930115	-0.005999999999990811	0.01970788706068848	-0.1051013210101346	-0.2901678044518302	-0.06071306895927545	98.62862702397042	816.7455771207722	-59.45184314091431	-0.1915962978696247	-0.005999999999990797	0.2476147876912431	-0.2783086135422472	-2.302205403736789	0.1677175647459628	1.398396878910169e-16	1.956801615808228e-16	2.581576011135371e-17	0.8999999999986045	-0.005999999999990799	0.1999999923701451	-4.104192716451418e-19	3.777167904365102e-19	4.153071957351991e-20
0.001666666666666667	16.85178064239383	53.16813913706783	0.0260454652337362	0.1859289592752235	-0.005999999999990741	0.02391794307406796	-0.09594618638995721	-0.2698032721646216	-0.05480260277886775	99.38645590877265	815.7352633684001	-58.88505891728832	-0.1914485170726803	-0.005999999999990727	0.2475507771356572	-0.2694932526134227	-2.215506572562539	0.1605041997340662	1.417870341362231e-16	1.908347238859969e-16	3.12898861893916e-17	0.8999999999985882	-0.00599999999999073	0.1999999923701451	-3.921217618682983e-19	5.616876788054424e-19	6.406334479511773e-20
0.0025	17.55850170015313	58.89343285997087	-0.3263104536969478	0.1875017354937701	-0.005999999999990657	0.02807005548799529	-0.08640663510798871	-0.2485353755845261	-0.04905117911242278	100.148725596172	814.6992901405714	-58.31894060864889	-0.191300771670612	-0.005999999999990644	0.2474866365958776	-0.2607817304949529	-2.129689311115292	0.1533681892891792	1.402688018942711e-16	1.803740004775349e-16	3.664164149263665e-17	0.8999999999985658	-0.005999999999990646	0.1999999923701451	-3.612238340668967e-19	7.543766488683787e-19	8.778768547516584e-20
0.003333333333333334	18.23632988771312	64.66051756455811	-0.7259326093602789	0.189066975025185	-0.005999999999990561	0.03212275824477121	-0.07654325495550515	-0.2265069472402709	-0.0435109342294013	100.9133095382096	813.6320572352064	-57.75566198771686	-0.1911529977696217	-0.005999999999990548	0.2474225302716002	-0.2522079506863176	-2.045125779862764	0.1463445016718426	1.348834010729815e-16	1.638568430019232e-16	4.171527245267839e-17	0.8999999999985376	-0.005999999999990551	0.1999999923701451	-3.169300329581481e-19	9.518472152626642e-19	1.122341408162039e-19
0.004166666666666667	18.87608450017406	70.45930017956448	-1.172698279546193	0.1906149078526036	-0.005999999999990455	0.03603714882223862	-0.06641820947893201	-0.2038383919395037	-0.03823320162555566	101.6782260348864	812.5277427564986	-57.19720469248608	-0.1910051014025682	-0.005999999999990442	0.2473585916409023	-0.2438019669515889	-1.962154226935467	0.1394652024147323	1.252793835650365e-16	1.409445468075041e-16	4.634247412194667e-17	0.899999999998504	-0.005999999999990444	0.1999999923701451	-2.586944537618935e-19	1.149536330348314e-18	1.368543914975483e-19
0.005000000000000001	19.46889430456046	76.28076994965382	-1.665825253896574	0.192136407830394	-0.00599999999999034	0.03977769663259781	-0.05609481670339848	-0.180621575234529	-0.03326802234430582	102.4416479644379	811.3804438458897	-56.64533234426534	-0.1908569660113844	-0.005999999999990327	0.2472949219840226	-0.2355896124206571	-1.881074713733392	0.1327590042541978	1.111710338860309e-16	1.114227686364861e-16	5.034519982602097e-17	0.8999999999984662	-0.005999999999990331	0.1999999923701451	-1.862668213303257e-19	1.342294101082e-18	1.610257357454654e-19
0.005833333333333334	20.00632954912044	82.11698233271431	-2.203853869215422	0.1936231550512405	-0.005999999999990223	0.04331290424373476	-0.04563741215994361	-0.1569143878199892	-0.02866376060427824	103.2019095062887	810.1843084219307	-56.10157130788054	-0.1907084593702495	-0.00599999999999021	0.2472315901123111	-0.2275922576794075	-1.80214598666223	0.1262509209696486	9.23542237192274e-17	7.522297843676185e-17	5.353908378381847e-17	0.8999999999984257	-0.005999999999990213	0.1999999923701451	-9.973669471767703e-20	1.52444393420251e-18	1.84057925788049e-19
0.006666666666666668	20.48051868935576	87.96103041477207	-2.78464804298705	0.1950677832380832	-0.005999999999990105	0.04661580744646934	-0.03511142262050932	-0.1327358559764419	-0.02446683063117424	103.9575100651902	808.9336549254974	-55.56719775210756	-0.1905594398147688	-0.005999999999990093	0.2471686332326756	-0.2198266908734696	-1.725583462246995	0.1199620242647259	6.872214872610271e-17	3.244282411205754e-17	5.573746511671534e-17	0.8999999999983844	-0.005999999999990096	0.1999999923701451	4.255993155840488e-22	1.689864136072335e-18	2.052026440728985e-19
0.007500000000000001	20.88424881875097	93.80700817813951	-3.405417442091898	0.1964640060181911	-0.005999999999989993	0.04966431132384643	-0.0245835638049083	-0.108061659391304	-0.02072153103329817	104.7071154694526	807.6230779330219	-55.04323054190353	-0.1904097616902674	-0.005999999999989981	0.2471060588578851	-0.2123051072412434	-1.651558245767014	0.113909298670615	4.028052046196931e-17	-1.663526260935951e-17	5.67559844419023e-17	0.8999999999983435	-0.005999999999989984	0.1999999923701451	1.133327925464342e-19	1.832091562304568e-18	2.236657072373174e-19
0.008333333333333335	21.21104916241566	99.64996949825458	-4.062762279199326	0.1978067160911439	-0.00599999999998989	0.05244136879176943	-0.0141220941562781	-0.08282002284743711	-0.01746997476847945	105.4495565319671	806.247538048253	-54.53042958565635	-0.1902592799398979	-0.005999999999989878	0.2470438476531895	-0.2050351971927257	-1.580197110984729	0.1081055896170917	7.161746106911074e-18	-7.152793049865779e-17	5.641770558018849e-17	0.8999999999983044	-0.005999999999989881	0.1999999923701451	2.376508148887905e-19	1.944447410584656e-18	2.386220255833156e-19
0.009166666666666668	21.45525689842502	105.4858859817715	-4.752741382878039	0.1990920524726959	-0.005999999999989799	0.05493501448286218	-0.003797091109900641	-0.05688811236438848	-0.01475209614154782	106.1838251977571	804.8024349438263	-54.02929936089294	-0.190107853745505	-0.005999999999989788	0.2469819570720459	-0.1980203289398935	-1.511583414781973	0.1025596427239581	-3.036240427845815e-17	-1.315379805450721e-16	5.455869510960478e-17	0.8999999999982671	-0.00599999999998979	0.1999999923701451	3.715768334598778e-19	2.020184682034572e-18	2.492332771739241e-19
0.01	21.61206429820321	111.3116059087085	-5.470963138013845	0.200317433158149	-0.005999999999989724	0.05713827039039769	0.006319255619951356	-0.03008919918944172	-0.01260571123462545	106.9090686306766	803.2836629923314	-53.54009729316412	-0.1899553491391729	-0.005999999999989713	0.2469203255886983	-0.1912598274719584	-1.445758959113382	0.09727623447610485	-7.187016736316192e-17	-1.957453921509169e-16	5.103397193768547e-17	0.8999999999982311	-0.005999999999989716	0.1999999923701451	5.128267723248022e-19	2.052656208491858e-18	2.546681793613294e-19
0.01083333333333334	21.67754608071162	117.1248158948232	-6.212697714547773	0.2014815532431851	-0.00599999999998967	0.05904894138279525	0.01615233231084201	-0.002190887781903644	-0.01106660532300298	107.6245816274011	801.6876496232521	-53.06284645594309	-0.1898016405372508	-0.005999999999989658	0.2468588772972291	-0.1847493499577784	-1.382726795706418	0.09225639248457049	-1.167817308477698e-16	-2.630030424556918e-16	4.572371818893807e-17	0.8999999999981966	-0.00599999999998966	0.1999999923701451	6.586338471930379e-19	2.035501464005073e-18	2.541251576028044e-19
0.01166666666666667	21.64866616473786	122.9240065249217	-6.973007873496953	0.2025843511495791	-0.005999999999989636	0.06066931954894023	0.02562478340121136	0.02709536350393753	-0.01016862096513394	108.3297977060413	800.011377245011	-52.59735182273314	-0.1896466112149719	-0.005999999999989624	0.2467975266264219	-0.1784813475151965	-1.322454888853292	0.08749769727919332	-1.643542913436013e-16	-3.319378285932538e-16	3.853962201603879e-17	0.8999999999981634	-0.005999999999989627	0.1999999923701451	8.057595562406636e-19	1.962849659958992e-18	2.468571231433479e-19
0.0125	21.52326365433325	128.7084429407747	-7.746894665863253	0.2036269475959471	-0.005999999999989621	0.06200581659570499	0.03465622095618725	0.05811330780822507	-0.009943722613152725	109.0242791739951	798.2523901518856	-52.14321919043467	-0.1894901528408282	-0.00599999999998961	0.2467361829251117	-0.1724455907014249	-1.264880453098775	0.08299465035558506	-2.136807517953923e-16	-4.009578515726527e-16	2.943120300955157e-17	0.899999999998132	-0.005999999999989613	0.1999999923701451	9.50518425529544e-19	1.829535878295009e-18	2.32197979178557e-19
